<svg width="70" height="60" fill="none" xmlns="http://www.w3.org/2000/svg"><path d="M70 25.117c-5.595-2.203-11.337-4.001-17.153-5.533-5.841-1.494-11.636-2.941-17.74-3.041h-.21c-9.092.173-17.781 2.931-26.402 5.553-2.853.939-5.7 1.893-8.495 3.02 1.06-.21 2.124-.419 3.183-.634v18.08c-1.06-.03-2.118-.062-3.183-.078 2.884.614 5.79 1.086 8.694 1.552 8.695 1.285 17.389 2.397 26.198 2.491h.21c2.921 0 5.795-.199 8.668-.42 8.805-.733 17.567-1.882 26.23-3.623-1.033.016-2.097.042-3.183.074V24.482c1.06.215 2.124.425 3.183.635zM55.61 22.2v20.823l-1.866.095V34.45l-.005-.226c-.084-1.992-1.458-3.555-3.125-3.555-1.673 0-3.047 1.563-3.126 3.555l-.005 9.219-1.904.094V20.345a312.38 312.38 0 0110.032 1.856zm-6.926 21.18v-8.647l.005-.467c.058-1.342.902-2.386 1.925-2.386 1.022 0 1.866 1.054 1.924 2.391l.005 8.915c-1.306.063-2.59.126-3.86.194zm-13.666.524c-1.033 0-2.16-.026-3.34-.063v-10.68l.01-.362c.105-1.982 1.568-3.534 3.33-3.534 1.757 0 3.215 1.546 3.325 3.523l.01 11.054a88.744 88.744 0 01-3.335.063zm4.74-11.18c-.146-2.732-2.228-4.871-4.74-4.871-2.511 0-4.593 2.14-4.74 4.887l-.01 11.06c-.672-.027-1.359-.053-2.046-.084V19.742c2.287-.315 4.568-.572 6.828-.588 2.218-.015 4.499.278 6.775.603v23.954c-.687.032-1.369.058-2.056.084V33.14l-.01-.415zM24.463 20.33v23.21c-.64-.032-1.279-.069-1.903-.1l-.005-9.214c-.084-1.992-1.458-3.555-3.126-3.555-1.672 0-3.046 1.563-3.125 3.566l-.005 8.883c-.635-.032-1.27-.063-1.904-.1V22.206c1.075-.215 2.145-.43 3.22-.64 2.255-.409 4.552-.844 6.848-1.237zm-6.848 22.858c-.037 0-.079-.005-.115-.005v-8.605l.005-.305c.058-1.342.902-2.396 1.924-2.396 1.023 0 1.862 1.049 1.925 2.391l.005 9.109c-1.326-.074-2.59-.137-3.744-.19zM4.955 24.126l7.253-1.48V42.92c-.42-.02-.834-.036-1.254-.057v-7.667c0-1.484-1.064-2.695-2.375-2.695-1.306 0-2.37 1.206-2.37 2.695v7.468l-1.254-.048v-18.49zm2.198 18.568V35.19c0-.965.64-1.746 1.426-1.746.787 0 1.426.786 1.426 1.746v7.62c-.949-.037-1.898-.08-2.852-.116zm55.69.005c-.945.037-1.9.079-2.859.12v-7.624c0-.965.64-1.746 1.427-1.746.786 0 1.426.787 1.426 1.746V42.7h.005zm2.202-.084l-1.259.047v-7.467c0-1.484-1.065-2.695-2.375-2.695-1.306 0-2.37 1.206-2.37 2.695v7.667c-.415.02-.834.036-1.249.057V22.642c2.418.492 4.835.99 7.253 1.484v18.49z" fill="#fff"/><path d="M26.193 10.035a76.76 76.76 0 012.81-.76 25.286 25.286 0 0111.4-.147c4.154.907 8.265 2.475 12.224 3.86C58.48 15.174 64.242 17.592 70 20.04a134.983 134.983 0 00-4.31-2.48C61.185 14.156 47.226 4.01 36.314.223a3.992 3.992 0 00-2.638 0C22.674 4.042 8.579 14.33 4.196 17.644A154.584 154.584 0 000 20.041c8.61-3.619 17.236-7.363 26.193-10.006zm7.179-7.65c1.001-.33 2.076-.378 3.067-.016C40.11 3.717 50.446 8.21 63.707 16.49a147.413 147.413 0 00-10.471-5.014 97.945 97.945 0 00-4.38-1.772C44.38 8.069 40.01 6.407 35.109 6.307h-.21c-3.278.068-6.303.918-9.271 1.835-6.361 2.077-12.486 4.772-18.401 7.877C13.928 11.99 26.623 4.624 33.372 2.385zM37.955 56.8c-3.052.461-6.167.225-9.135-.63l-2.57-.739C17.285 52.721 8.653 48.918 0 45.311c8.773 5.553 24.51 13.854 34.892 14.4.053.004.105.004.21 0 6.555-.405 12.376-2.874 18.244-5.407 5.757-2.607 11.337-5.575 16.649-8.994-5.795 2.434-11.568 4.888-17.43 7.106-4.757 1.683-9.607 3.618-14.61 4.384z" fill="#fff"/></svg>