<svg width="25" height="24" fill="none" xmlns="http://www.w3.org/2000/svg"><path fill-rule="evenodd" clip-rule="evenodd" d="M6.133 18.873a13.69 13.69 0 01-5.762-5.607 3.02 3.02 0 010-2.899 13.64 13.64 0 0111.979-7.1c2.68 0 5.178.771 7.286 2.103L15.96 9.046a4.55 4.55 0 10-6.38 6.38l-3.447 3.447zm1.474.648a13.63 13.63 0 004.743.846 13.64 13.64 0 0011.98-7.1 3.02 3.02 0 000-2.9 13.684 13.684 0 00-3.455-4.114l-4.187 4.187a4.55 4.55 0 01-5.715 5.715L7.607 19.52zm4.743-7.704L10.2 13.98a3.05 3.05 0 013.997-4.59l-1.847 2.426z" fill="#25282B"/><path d="M21.533 2l-19 19" stroke="#25282B" stroke-width="1.5" stroke-linecap="round" stroke-linejoin="round"/></svg>