<svg width="25" height="24" fill="none" xmlns="http://www.w3.org/2000/svg"><path fill-rule="evenodd" clip-rule="evenodd" d="M8.622 2.01c-1.324.133-2.42.512-3.427 1.185C1.428 5.713.901 11.018 4.099 14.233c1.91 1.92 4.724 2.588 7.321 1.739.454-.148 1.155-.473 1.5-.693.123-.079.232-.143.242-.143.01 0 .019.058.019.13 0 .167.1.502.224.75.131.265 5.355 5.512 5.692 5.718.322.197.58.266.99.266.568 0 .992-.173 1.37-.558.381-.39.543-.792.543-1.355 0-.411-.069-.668-.266-.99-.206-.338-5.452-5.563-5.716-5.694-.25-.124-.584-.224-.75-.224-.072 0-.13-.008-.13-.019 0-.01.064-.119.142-.242.22-.345.545-1.046.693-1.5a7.264 7.264 0 00.22-3.68 7.07 7.07 0 00-1.959-3.643 7.129 7.129 0 00-3.948-2.015c-.336-.056-1.374-.1-1.664-.07zM9.91 4.26c1.726.227 3.275 1.484 3.91 3.174.223.592.279.937.279 1.734 0 .796-.045 1.08-.272 1.709-.48 1.331-1.617 2.468-2.948 2.948-.63.227-.913.272-1.709.272-.65 0-.79-.012-1.115-.093-1.155-.287-2.11-.896-2.793-1.78-.713-.923-1.045-1.894-1.045-3.056 0-1.376.479-2.532 1.45-3.504 1.148-1.147 2.58-1.621 4.243-1.403z" fill="#25282B"/></svg>