<svg width="35" height="35" fill="none" xmlns="http://www.w3.org/2000/svg"><path fill-rule="evenodd" clip-rule="evenodd" d="M35 17.5C35 27.165 27.165 35 17.5 35S0 27.165 0 17.5 7.835 0 17.5 0 35 7.835 35 17.5zM16.84 6.328a6.107 6.107 0 00-3.588 1.717 5.575 5.575 0 00-1.568 2.93c-.118.6-.1 1.564.044 2.181a5.502 5.502 0 001.563 2.781c.815.802 1.849 1.34 3.07 1.604.575.122 1.757.109 2.357-.022 1.227-.276 2.203-.802 3.027-1.63a5.536 5.536 0 001.559-2.925c.092-.47.105-1.428.022-1.893-.39-2.211-2.09-4.011-4.319-4.576a6.65 6.65 0 00-2.168-.167zm1.383 2.939c1.253.333 2.08 1.323 2.15 2.571.031.53-.039.845-.297 1.375-.311.63-.937 1.165-1.66 1.406-.394.136-1.174.167-1.599.07-.608-.144-1.244-.543-1.616-1.016-1.108-1.415-.622-3.42 1.02-4.205.18-.083.434-.18.57-.214.368-.088 1.069-.083 1.432.013zm-7.415 8.89c.158-.21.49-.45.705-.512.465-.136 1.012.005 1.63.416 2.58 1.713 6.14 1.713 8.711 0 .543-.363.902-.486 1.332-.455.534.04.998.39 1.187.902.232.622.153.96-.346 1.454-.561.56-1.555 1.165-2.466 1.507-.684.254-2.225.595-2.694.595-.074 0-.149.018-.162.04-.013.022.99 1.012 2.234 2.198 1.966 1.888 2.273 2.2 2.382 2.422.329.649-.017 1.459-.78 1.831-.258.127-.332.145-.643.145-.293 0-.386-.022-.57-.118-.148-.075-.709-.587-1.708-1.555l-1.06-1.023-.744-.716-.315-.298-1.757 1.704c-2.014 1.949-2.089 2.006-2.628 2.001-.407 0-.722-.13-1.046-.433-.316-.298-.487-.657-.487-1.03 0-.088 0-.162.01-.233.052-.354.381-.667 2.47-2.675 1.239-1.191 2.255-2.185 2.255-2.203 0-.017-.057-.04-.123-.048-.893-.088-2.18-.377-2.864-.644-1.077-.416-2.378-1.305-2.694-1.844-.157-.271-.18-.556-.065-.928.052-.171.157-.394.236-.5z" fill="#fff"/></svg>