<svg width="35" height="35" fill="none" xmlns="http://www.w3.org/2000/svg"><path fill-rule="evenodd" clip-rule="evenodd" d="M17.5 35C27.165 35 35 27.165 35 17.5S27.165 0 17.5 0 0 7.835 0 17.5 7.835 35 17.5 35zm-3.923-23.428c.244-.07.86-.157 1.343-.19.139-.009.795-.009 1.467-.004 1.655.023 2.272.138 2.526.47.253.342.263.416.248 2.995l-.015 2.395.134.253c.145.277.339.416.572.416.164 0 .667-.365.99-.72.81-.895 2.039-2.884 2.635-4.263.224-.517.398-.79.567-.863.09-.037.86-.056 2.635-.07l2.512-.013.208.101c.294.148.358.356.244.785-.194.729-.89 1.767-2.635 3.912-1.238 1.523-1.422 1.8-1.422 2.164.005.434.099.554 1.511 1.85 1.328 1.218 1.716 1.624 2.173 2.261.343.485.418.692.398 1.149-.005.166-.284.42-.542.494-.259.069-4.286.143-4.585.078a5.335 5.335 0 01-.671-.244c-.547-.245-.91-.545-1.9-1.574-1.054-1.098-1.337-1.292-1.84-1.269-.148.005-.482.291-.64.536-.175.276-.304.798-.344 1.407-.044.613-.114.812-.338.955-.278.175-.651.212-1.95.184-1.307-.027-1.685-.078-2.56-.35-.636-.199-1.153-.434-1.864-.858-1.527-.905-2.188-1.514-3.685-3.392-1.014-1.278-1.97-2.74-3.093-4.752-.577-1.033-1.357-2.648-1.387-2.87-.035-.207.064-.369.298-.484.144-.074.358-.083 2.223-.097l2.063-.014.274.13c.323.152.413.267.7.899.235.521 1.289 2.478 1.667 3.087 1.054 1.716 2.014 2.334 2.426 1.568.16-.286.204-.466.309-1.25.159-1.186.024-2.865-.269-3.4-.174-.314-.557-.554-1.014-.632a.52.52 0 01-.22-.079c-.094-.147.428-.581.851-.701z" fill="#fff"/></svg>